<?xml version="1.0" encoding="UTF-8"?>
<!DOCTYPE svg PUBLIC "-//W3C//DTD SVG 1.1//EN" "http://www.w3.org/Graphics/SVG/1.1/DTD/svg11.dtd">
<!-- Creator: CorelDRAW X8 -->
<svg xmlns="http://www.w3.org/2000/svg" xml:space="preserve" width="42.3406mm" height="26.6519mm" version="1.1" style="shape-rendering:geometricPrecision; text-rendering:geometricPrecision; image-rendering:optimizeQuality; fill-rule:evenodd; clip-rule:evenodd"
viewBox="0 0 4234 2665"
 xmlns:xlink="http://www.w3.org/1999/xlink">
 <defs>
  <style type="text/css">
   <![CDATA[
    .fil2 {fill:#FEFEFE}
    .fil0 {fill:#373435}
    .fil1 {fill:#105C96}
    .fil4 {fill:#373435;fill-rule:nonzero}
    .fil3 {fill:#105C96;fill-rule:nonzero}
   ]]>
  </style>
 </defs>
 <g id="Layer_x0020_1">
  <metadata id="CorelCorpID_0Corel-Layer"/>
  <g id="_39972970304">
   <polygon class="fil0" points="1566,0 2840,878 2840,1018 1566,140 "/>
   <polygon class="fil1" points="1566,299 2840,1177 2840,1337 1566,459 "/>
   <polygon class="fil2" points="1566,459 2840,1337 2840,1496 1566,619 "/>
   <path class="fil3" d="M324 1311c0,-12 -9,-20 -21,-20l-122 0c-14,0 -26,10 -28,24l-153 866c0,1 0,3 0,5 0,11 7,20 20,20l122 0c13,0 27,-11 29,-25l153 -866c0,-2 0,-3 0,-4z"/>
   <path class="fil3" d="M1308 1683c0,-111 -53,-180 -169,-180 -85,0 -154,20 -217,60 -21,-32 -62,-60 -132,-60 -72,0 -125,26 -182,59l5 -26c0,-1 0,-2 0,-4 0,-12 -9,-20 -21,-20l-107 0c-14,0 -26,11 -28,24l-114 644c0,1 0,2 0,5 0,11 8,21 20,21l113 0c14,0 27,-13 30,-26l87 -497c56,-27 95,-41 121,-41 50,0 70,14 70,59 0,16 -1,36 -6,60l-74 419c0,1 0,2 0,5 0,11 7,21 20,21l113 0c14,0 27,-13 30,-26l73 -419c5,-30 5,-61 7,-88 49,-24 100,-31 124,-31 53,0 74,15 74,63 0,15 -3,33 -6,56l-74 419c0,1 0,2 0,5 0,11 7,21 19,21l114 0c13,0 27,-13 29,-26l74 -419c5,-28 7,-54 7,-78z"/>
   <path class="fil3" d="M2032 1740c0,-140 -80,-237 -245,-237 -79,0 -173,12 -253,32 -30,7 -36,15 -40,33l-150 857 0 1c0,1 0,2 0,4 0,11 7,19 20,19l113 0c14,0 27,-11 30,-24l38 -218c44,6 87,9 117,9 198,0 312,-95 348,-309l16 -95c4,-25 6,-49 6,-72zm-161 -1c0,21 -3,46 -8,73l-16 95c-16,94 -56,176 -162,176 -30,0 -84,-4 -117,-9l75 -430c25,-4 76,-8 121,-8 80,0 107,37 107,103z"/>
   <path class="fil3" d="M2732 1755c0,-144 -77,-252 -241,-252 -188,0 -310,85 -351,315l-13 76c-5,26 -6,52 -6,74 0,186 133,248 242,248 111,0 165,-7 248,-21 23,-4 27,-13 30,-32l15 -82c0,-1 0,-3 0,-5 0,-11 -8,-13 -18,-13 -2,0 -4,0 -5,0 -53,5 -138,13 -228,13 -91,0 -126,-44 -126,-110 0,-18 4,-34 7,-51l401 0c17,0 26,-11 29,-31l10 -59c4,-23 6,-48 6,-70zm-160 -2c0,16 -2,31 -4,47l-261 0c16,-90 61,-157 160,-157 67,0 105,38 105,110z"/>
   <path class="fil3" d="M3275 1523c0,-11 -7,-20 -19,-20 -52,0 -117,5 -188,59l5 -26c0,-1 0,-2 0,-4 0,-12 -8,-20 -21,-20l-107 0c-13,0 -25,11 -28,24l-113 644c0,1 0,2 0,5 0,11 7,21 20,21l113 0c13,0 27,-13 29,-26l88 -495c83,-42 138,-44 177,-44 13,0 26,-11 28,-25l16 -88c0,-2 0,-3 0,-5z"/>
   <path class="fil3" d="M3593 1283c0,-13 -9,-21 -21,-21l-120 0c-13,0 -27,11 -29,24l-20 109c0,1 0,2 0,3 0,13 10,21 22,21l120 0c13,0 26,-11 28,-24l20 -109c0,-1 0,-2 0,-3zm-48 249c0,-12 -9,-21 -21,-21l-113 0c-14,0 -26,12 -29,25l-113 644c0,1 0,2 0,5 0,11 7,21 20,21l113 0c14,0 27,-13 30,-26l113 -644c0,-1 0,-2 0,-4z"/>
   <path class="fil3" d="M4234 1745c0,-129 -77,-242 -246,-242 -193,0 -311,105 -348,306l-19 100c-4,20 -5,39 -5,59 0,129 79,248 246,248 194,0 309,-104 347,-307l19 -100c4,-21 6,-43 6,-64zm-164 10c0,16 -1,35 -5,54l-18 100c-21,115 -74,166 -160,166 -73,0 -108,-39 -108,-112 0,-16 1,-34 5,-54l18 -100c22,-121 86,-166 161,-166 73,0 107,40 107,112z"/>
   <path class="fil4" d="M1831 2336c0,-44 -35,-64 -101,-64 -18,0 -51,1 -65,1 -4,1 -8,5 -9,8l-52 295c0,0 0,1 0,1 0,4 2,7 6,7l4 0c4,0 8,-4 9,-8l23 -132c0,0 37,0 54,0l19 0 65 136c1,2 4,4 6,4l5 0c5,0 7,-4 7,-7 0,-2 -1,-4 -2,-5l-61 -130c48,-6 78,-28 89,-83l1 -2c1,-7 2,-14 2,-21zm-19 2c0,5 0,12 -2,19l0 2c-10,53 -41,67 -106,67 -12,0 -43,0 -55,0l24 -135c13,-1 36,-2 54,-2 57,0 85,11 85,49z"/>
   <path class="fil4" d="M2038 2371c0,-3 -2,-5 -6,-5 -18,-4 -44,-8 -68,-8 -58,0 -87,29 -100,101l-8 47c-1,7 -2,14 -2,20 0,41 26,60 60,60 25,0 50,-13 72,-24l-2 13c0,1 -1,2 -1,2 0,4 2,7 6,7l4 0c4,0 8,-4 9,-9l35 -202c0,-1 1,-2 1,-2zm-20 8l-29 165c-30,16 -49,26 -71,26 -24,0 -46,-7 -46,-44 0,-6 1,-13 2,-20l9 -47c9,-55 31,-85 78,-85 20,0 42,3 57,5z"/>
   <path class="fil4" d="M2135 2278c0,-3 -2,-6 -7,-6l-2 0c-4,0 -8,1 -9,8l-6 30c0,1 0,2 0,3 0,3 2,5 6,5l3 0c4,0 8,-1 9,-8l6 -30c0,-1 0,-2 0,-2zm-16 88c0,-3 -2,-6 -5,-6l-5 0c-4,0 -7,3 -8,8l-37 208c0,0 0,1 0,1 0,4 3,7 7,7l2 0c4,0 9,-4 9,-8l37 -208c0,-1 0,-2 0,-2z"/>
   <path class="fil4" d="M2220 2280c0,-3 -2,-6 -6,-6l-4 0c-4,0 -8,4 -9,8l-52 294c0,0 0,1 0,2 0,3 2,6 6,6l4 0c4,0 8,-4 9,-8l52 -294c0,-1 0,-1 0,-2z"/>
   <path class="fil4" d="M2305 2278c0,-3 -2,-6 -6,-6l-3 0c-4,0 -8,1 -9,8l-6 30c0,1 0,2 0,3 0,3 2,5 7,5l2 0c4,0 8,-1 9,-8l6 -30c0,-1 0,-2 0,-2zm-16 88c0,-3 -1,-6 -5,-6l-5 0c-4,0 -7,3 -8,8l-37 208c0,0 0,1 0,1 0,4 3,7 7,7l3 0c4,0 8,-4 9,-8l36 -208c0,-1 0,-2 0,-2z"/>
   <path class="fil4" d="M2501 2417c0,-43 -30,-59 -65,-59 -21,0 -44,6 -67,17l1 -7c0,-1 0,-1 0,-2 0,-3 -2,-6 -5,-6l-4 0c-4,0 -8,3 -9,8l-37 208c0,0 0,1 0,1 0,4 3,7 7,7l2 0c5,0 9,-4 10,-8l32 -185c23,-10 48,-17 69,-17 27,0 47,12 47,45 0,5 0,12 -1,18l-25 139c0,0 0,1 0,1 0,4 2,7 6,7l3 0c5,0 8,-4 9,-8l25 -139c1,-7 2,-13 2,-20z"/>
   <path class="fil4" d="M2721 2370c0,-3 -2,-4 -6,-5 -12,-3 -39,-7 -64,-7 -57,0 -90,22 -104,99l-5 29c-2,11 -3,22 -3,31 0,59 40,69 72,69 15,0 43,-2 55,-6l-1 4c-10,54 -25,65 -71,65 -25,0 -51,-3 -61,-5 -1,0 -1,0 -2,0 -3,0 -6,2 -7,6l0 2c0,1 0,2 0,2 0,3 1,5 7,6 8,1 34,5 63,5 51,0 78,-14 89,-81l38 -211c0,-1 0,-2 0,-3zm-20 10l-33 183c-14,4 -41,7 -54,7 -32,0 -57,-7 -57,-51 0,-9 2,-20 4,-33l5 -29c11,-66 38,-83 83,-83 20,0 37,3 52,6z"/>
   <path class="fil4" d="M3045 2282c0,-1 0,-1 0,-1 0,-3 -2,-5 -6,-5 -17,-2 -39,-4 -61,-4 -54,0 -111,14 -111,77 0,29 22,49 54,71l21 14c40,28 54,42 54,65 0,53 -42,70 -90,70 -23,0 -42,-2 -64,-4 0,0 -1,0 -2,0 -3,0 -5,0 -6,5l-1 5c0,0 0,1 0,1 0,4 3,5 6,6 18,2 41,4 64,4 58,0 113,-24 113,-89 0,-25 -17,-47 -63,-78l-21 -14c-29,-19 -46,-36 -46,-58 0,-51 48,-58 88,-58 21,0 46,3 62,4 0,0 0,0 1,0 4,0 7,-2 7,-5l1 -6 0 0z"/>
   <path class="fil4" d="M3248 2365c0,-3 -1,-5 -5,-5l-4 0c-4,0 -8,2 -9,5l-93 202 -9 0c-6,0 -7,-1 -8,-9l-23 -192c0,-3 -2,-6 -5,-6l-3 0c-5,0 -9,3 -9,9 0,0 0,0 0,1l23 190c3,20 9,24 21,24l5 0 -8 19c-16,35 -27,46 -57,46 -7,0 -20,-2 -27,-3 -1,0 -1,0 -2,0 -4,0 -7,2 -8,6l-1 5c0,0 0,1 0,1 0,3 3,4 8,5 7,1 16,2 25,2 44,0 58,-15 78,-58l110 -237c1,-2 1,-4 1,-5z"/>
   <path class="fil4" d="M3419 2368c0,-5 -3,-6 -7,-7 -14,-1 -30,-3 -60,-3 -38,0 -73,13 -73,56 0,23 18,40 42,54l24 14c27,17 36,25 36,39 0,37 -24,49 -61,49 -15,0 -39,-2 -62,-5 -1,-1 -2,-1 -3,-1 -3,0 -5,1 -5,5l-1 5c0,0 0,1 0,1 0,4 4,5 8,5 14,3 41,6 59,6 44,0 83,-16 83,-65 0,-21 -10,-33 -43,-53l-25 -16c-20,-13 -33,-24 -33,-38 0,-32 19,-40 54,-40 21,0 47,2 57,3 1,0 3,1 4,1 4,0 6,-1 6,-6l0 -4c0,0 0,0 0,0z"/>
   <path class="fil4" d="M3590 2365c0,-4 -3,-5 -6,-5l-50 0 7 -39c0,-1 0,-1 0,-2 0,-4 -2,-6 -6,-6l-4 0c-5,0 -8,4 -8,8l-7 39 -42 0c-4,0 -8,1 -9,6l-1 4c0,0 0,1 0,1 0,4 3,6 7,6l42 0 -30 164c0,5 -1,9 -1,13 0,24 15,32 41,32 7,0 15,0 21,-1 6,-1 8,-3 9,-7l0 -2c0,-1 0,-1 0,-1 0,-4 -4,-5 -7,-5l-21 0c-15,0 -25,-2 -25,-17 0,-4 1,-7 2,-12l29 -164 49 0c5,0 9,-2 9,-6l1 -5c0,0 0,-1 0,-1z"/>
   <path class="fil4" d="M3784 2429c0,-42 -21,-71 -69,-71 -55,0 -91,34 -101,99l-5 28c-2,10 -2,20 -2,28 0,52 32,73 78,73 19,0 43,-3 64,-7 6,-1 8,-1 9,-7l1 -3c1,-1 1,-2 1,-3 0,-3 -2,-3 -5,-3 -2,0 -3,0 -4,0 -21,4 -45,7 -64,7 -38,0 -62,-13 -62,-58 0,-8 1,-17 2,-27l2 -9 140 0c4,0 9,-3 10,-8l2 -11c2,-10 3,-19 3,-28zm-18 -1c0,9 -1,18 -3,29l0 2 -131 0 0 -2c11,-51 35,-83 81,-83 38,0 53,19 53,54z"/>
   <path class="fil4" d="M4093 2410c0,-37 -27,-52 -58,-52 -22,0 -43,7 -66,17 -8,-13 -25,-17 -40,-17 -22,0 -40,7 -63,18l1 -8c0,-1 0,-1 0,-2 0,-3 -1,-6 -6,-6l-3 0c-5,0 -8,3 -9,8l-37 208c0,0 0,1 0,2 0,3 1,6 5,6l6 0c4,0 7,-4 8,-8l32 -185c21,-9 45,-17 63,-17 22,0 32,10 32,32 0,5 -1,12 -2,19l-27 151c0,1 0,1 0,2 0,3 1,6 5,6l6 0c5,0 7,-4 8,-8l27 -151c1,-8 2,-14 2,-21 0,-6 -1,-11 -2,-16 19,-8 39,-14 58,-14 25,0 42,10 42,37 0,4 -1,10 -2,15l-26 150c0,0 0,1 0,2 0,3 1,6 6,6l4 0c4,0 7,-4 8,-8l26 -150c1,-5 2,-11 2,-16z"/>
  </g>
 </g>
</svg>
