<?xml version="1.0" encoding="utf-8"?>
<!-- Generator: Adobe Illustrator 23.0.1, SVG Export Plug-In . SVG Version: 6.00 Build 0)  -->
<svg version="1.1" id="Layer_1" xmlns="http://www.w3.org/2000/svg" xmlns:xlink="http://www.w3.org/1999/xlink" x="0px" y="0px"
	 viewBox="0 0 362 68.1" style="enable-background:new 0 0 362 68.1;" xml:space="preserve">
<style type="text/css">
	.st0{fill:#8E8F8E;}
</style>
<g>
	<g>
		<g>
			<path class="st0" d="M166.6,31.8c-6.5-3.1-14-4.3-20.1-6.5c-4.4-1.6-6.9-3.5-6.9-6.8c0-4.7,4.8-7.5,9.7-7.5
				c6.3,0,11.6,2.4,12.1,10h13.1c0-15-12.2-21-25.1-21c-11.3,0-23.2,6.2-23.2,19.6c0,7.8,4.4,12.5,9.9,15.1c6.2,3,13.7,4,20.3,6.6
				c4.5,1.7,6.7,4.3,6.7,7.8c0,5.6-6.1,7.9-11.9,7.9c-7.3,0-13.6-3.7-13.8-12.2h-13.2c0,16,12,23.2,26.7,23.2
				c17,0,25.8-8.1,25.8-20.3C176.7,39.7,172.6,34.7,166.6,31.8"/>
			<path class="st0" d="M85.7,56.5c-12.1,0-16.1-11.1-16.1-22.1c0-11.5,4-22.7,16.1-22.7s16.1,11.1,16.1,22.7
				C101.8,45.4,97.8,56.5,85.7,56.5 M85.7,0.1c-19.1,0-30.2,14.1-30.2,34.3c0,19.6,11.1,33.7,30.2,33.7s30.2-14.1,30.2-33.7
				C115.8,14.2,104.7,0.1,85.7,0.1"/>
		</g>
		<polygon class="st0" points="0,13.3 18.6,13.3 18.6,66 32.1,66 32.1,13.3 50.8,13.3 50.8,2.5 0,2.5 		"/>
		<polygon class="st0" points="181.8,13.3 200.4,13.3 200.4,66 213.9,66 213.9,13.3 232.6,13.3 232.6,2.5 181.8,2.5 		"/>
		<polygon class="st0" points="254.8,38.2 284.6,38.2 284.6,27.6 254.8,27.6 254.8,13.3 287.5,13.3 287.5,2.5 241.9,2.5 241.9,66 
			288.8,66 288.8,55.2 254.8,55.2 		"/>
		<polygon class="st0" points="341.6,2.5 331.1,50.1 320.7,2.5 300.2,2.5 300.2,66 312.5,66 312.5,13.3 312.9,13.3 316.6,30.9 
			324.7,66 337.4,66 345.5,30.9 349.2,13.3 349.6,13.3 349.6,66 362,66 362,2.5 		"/>
	</g>
</g>
</svg>
